# xmcd
#
# Track frame offsets: 
#        150
#        15955
#        36883
#        54611
#        73520
#        89825
#        107402
#        127262
#        142762
#        157062
#        174657
#        193710
#        213589
#        229604
#        244149
#        264540
#
# Disc length: 3768 seconds
#
# Revision: 0
# Processed by: cddbd v1.5.1PL0 Copyright (c) Steve Scherf et al.
# Submitted via: ExactAudioCopy v0.95a5
#
DISCID=e40eb610
DTITLE=Преслава - Преслава
DYEAR=2004
DGENRE=Pop-Folk
TTITLE0=Нямаш сърце
TTITLE1=Горчиви спомени
TTITLE2=Мразя те
TTITLE3=Помниш ли
TTITLE4=Мили мой
TTITLE5=Молиш ме (feat. Рашид Ал Рашид)
TTITLE6=Другата жена
TTITLE7=Първа шпага
TTITLE8=Дума за вярност
TTITLE9=Обичам те
TTITLE10=Тази нощ безумна
TTITLE11=Раздвоени (дует с Милко Калайджиев)
TTITLE12=Всичко свърши
TTITLE13=Писна ми
TTITLE14=Любов балканска (feat. орк. Академци)
TTITLE15=Всеотдайност
EXTD=
EXTT0=
EXTT1=
EXTT2=
EXTT3=
EXTT4=
EXTT5=
EXTT6=
EXTT7=
EXTT8=
EXTT9=
EXTT10=
EXTT11=
EXTT12=
EXTT13=
EXTT14=
EXTT15=
PLAYORDER=
